# Model Copyright (c) 2009 Specter Arts. Distributed on TurboSquid.
# Blender3D v249 OBJ File: SA_LD_Toilet_Plunger.blend
# www.blender3d.org
mtllib SA_LD_Toilet_Plunger.mtl
o Toilet_Plunger
v 1.200691 -3.958209 -0.684539
v 1.385358 -3.958209 0.004648
v 1.200691 -3.958209 0.693835
v 0.696171 -3.958209 1.198355
v 0.006984 -3.958209 1.383022
v -0.682203 -3.958209 1.198355
v -1.186723 -3.958209 0.693836
v -1.371390 -3.958209 0.004649
v -1.186723 -3.958209 -0.684538
v -0.682203 -3.958209 -1.189058
v 0.006983 -3.958209 -1.373726
v 0.696170 -3.958209 -1.189059
v 1.200691 -3.823991 -0.684539
v 1.385358 -3.823991 0.004648
v 1.200691 -3.823991 0.693835
v 0.696171 -3.823991 1.198355
v 0.006984 -3.823991 1.383022
v -0.682203 -3.823991 1.198355
v -1.186723 -3.823991 0.693836
v -1.371390 -3.823991 0.004649
v -1.186723 -3.823991 -0.684538
v -0.682203 -3.823991 -1.189058
v 0.006983 -3.823991 -1.373726
v 0.696170 -3.823991 -1.189059
v 1.259637 -3.823991 0.004648
v 1.091813 -3.823991 -0.621678
v 1.091813 -3.823991 0.630975
v 0.633311 -3.823991 1.089478
v 0.006984 -3.823991 1.257302
v -0.619342 -3.823991 1.089478
v -1.077845 -3.823991 0.630975
v -1.245669 -3.823991 0.004649
v -1.077846 -3.823991 -0.621678
v -0.619343 -3.823991 -1.080181
v 0.006983 -3.823991 -1.248005
v 0.633310 -3.823991 -1.080182
v 1.091813 -2.936665 -0.621678
v 1.259637 -2.936665 0.004648
v 1.091813 -2.936665 0.630975
v 0.633311 -2.936665 1.089478
v 0.006984 -2.936665 1.257302
v -0.619342 -2.936665 1.089478
v -1.077845 -2.936665 0.630975
v -1.245669 -2.936665 0.004649
v -1.077846 -2.936665 -0.621678
v -0.619343 -2.936665 -1.080181
v 0.006983 -2.936665 -1.248005
v 0.633310 -2.936665 -1.080182
v 1.132799 -2.519100 0.004648
v 0.981968 -2.519100 -0.558259
v 0.981968 -2.519100 0.567556
v 0.569891 -2.519100 0.979632
v 0.006984 -2.519100 1.130463
v -0.555923 -2.519100 0.979633
v -0.968000 -2.519100 0.567556
v -1.118831 -2.519100 0.004649
v -0.968000 -2.519100 -0.558259
v -0.555924 -2.519100 -0.970336
v 0.006983 -2.519100 -1.121167
v 0.569891 -2.519100 -0.970337
v 0.846357 -2.310317 0.004648
v 0.733902 -2.310317 -0.415038
v 0.733902 -2.310317 0.424335
v 0.426670 -2.310317 0.731567
v 0.006984 -2.310317 0.844021
v -0.412702 -2.310317 0.731567
v -0.719934 -2.310317 0.424335
v -0.832389 -2.310317 0.004649
v -0.719935 -2.310317 -0.415038
v -0.412703 -2.310317 -0.722270
v 0.006983 -2.310317 -0.834725
v 0.426670 -2.310317 -0.722271
v 0.297584 -2.310318 -0.285952
v 0.417955 -2.310318 0.004648
v 0.297584 -2.310318 0.295249
v 0.006984 -2.310318 0.415619
v -0.283616 -2.310318 0.295249
v -0.403987 -2.310318 0.004648
v -0.283616 -2.310318 -0.285952
v 0.006984 -2.310318 -0.406322
v 0.312668 -2.195394 0.004648
v 0.223135 -2.195394 -0.211503
v 0.223135 -2.195394 0.220800
v 0.006984 -2.195394 0.310333
v -0.209168 -2.195394 0.220800
v -0.298701 -2.195394 0.004648
v -0.209168 -2.195394 -0.211503
v 0.006984 -2.195394 -0.301036
v 0.312668 -1.976991 0.004648
v 0.223135 -1.976991 -0.211503
v 0.223135 -1.976991 0.220800
v 0.006984 -1.976991 0.310333
v -0.209168 -1.976991 0.220800
v -0.298701 -1.976991 0.004648
v -0.209168 -1.976991 -0.211503
v 0.006984 -1.976991 -0.301036
v 0.161455 -1.976991 -0.149823
v 0.225439 -1.976991 0.004648
v 0.161455 -1.976991 0.159120
v 0.006984 -1.976991 0.223104
v -0.147488 -1.976991 0.159120
v -0.211472 -1.976991 0.004648
v -0.147488 -1.976991 -0.149823
v 0.006984 -1.976991 -0.213807
v 0.161455 4.818024 -0.149823
v 0.225439 4.818024 0.004648
v 0.161455 4.818024 0.159120
v 0.006984 4.818024 0.223104
v -0.147488 4.818024 0.159120
v -0.211472 4.818024 0.004648
v -0.147488 4.818024 -0.149823
v 0.006984 4.818024 -0.213807
v 0.146779 4.897244 0.004648
v 0.105834 4.897244 -0.094202
v 0.105834 4.897244 0.103498
v 0.006984 4.897244 0.144443
v -0.091866 4.897244 0.103498
v -0.132811 4.897244 0.004648
v -0.091866 4.897244 -0.094202
v 0.006984 4.897244 -0.135147
v 0.617404 -3.958209 -0.605771
v 0.870248 -3.958209 0.004649
v 0.617404 -3.958209 0.615068
v 0.006984 -3.958209 0.867912
v -0.603436 -3.958209 0.615068
v -0.856280 -3.958209 0.004648
v -0.603436 -3.958209 -0.605771
v 0.006984 -3.958209 -0.858615
v 0.488152 -4.117619 -0.476520
v 0.687458 -4.117619 0.004649
v 0.488152 -4.117619 0.485817
v 0.006984 -4.117619 0.685123
v -0.474184 -4.117619 0.485816
v -0.673490 -4.117619 0.004648
v -0.474184 -4.117619 -0.476519
v 0.006984 -4.117619 -0.675826
v 0.687458 -4.725602 0.004649
v 0.488152 -4.725602 -0.476519
v 0.488152 -4.725602 0.485817
v 0.006984 -4.725602 0.685123
v -0.474184 -4.725602 0.485816
v -0.673490 -4.725602 0.004649
v -0.474184 -4.725602 -0.476519
v 0.006984 -4.725602 -0.675826
v 0.447276 -4.725602 -0.435643
v 0.629651 -4.725602 0.004649
v 0.447276 -4.725602 0.444941
v 0.006984 -4.725602 0.627315
v -0.433308 -4.725602 0.444940
v -0.615683 -4.725602 0.004649
v -0.433308 -4.725602 -0.435643
v 0.006984 -4.725602 -0.618018
v 0.629651 -3.887772 0.004649
v 0.447276 -3.887772 -0.435644
v 0.447276 -3.887772 0.444941
v 0.006984 -3.887772 0.627315
v -0.433308 -3.887772 0.444940
v -0.615683 -3.887772 0.004648
v -0.433308 -3.887772 -0.435643
v 0.006984 -3.887772 -0.618018
v 0.783183 -3.887772 -0.771550
v 1.104694 -3.887772 0.004649
v 0.783183 -3.887772 0.780847
v 0.006984 -3.887772 1.102359
v -0.769215 -3.887772 0.780847
v -1.090726 -3.887772 0.004648
v -0.769215 -3.887772 -0.771550
v 0.006983 -3.887772 -1.093062
v 1.104694 -2.946191 0.004648
v 0.783183 -2.946191 -0.771550
v 0.783183 -2.946191 0.780847
v 0.006984 -2.946191 1.102359
v -0.769215 -2.946191 0.780847
v -1.090726 -2.946191 0.004648
v -0.769215 -2.946191 -0.771550
v 0.006983 -2.946191 -1.093062
v 0.501815 -2.692472 -0.490182
v 0.706781 -2.692472 0.004648
v 0.501815 -2.692472 0.499479
v 0.006984 -2.692472 0.704445
v -0.487847 -2.692472 0.499479
v -0.692813 -2.692472 0.004648
v -0.487847 -2.692472 -0.490182
v 0.006984 -2.692472 -0.695148
v 0.006984 -2.545879 0.004648
vn 0.000000 1.000000 0.000000
vn 0.000000 -1.000000 0.000000
vn -0.000000 1.000000 -0.000001
vn 0.000001 1.000000 -0.000000
vn 0.000001 1.000000 -0.000001
vn -0.000001 1.000000 -0.000001
vn -0.000001 1.000000 -0.000000
vn -0.000001 1.000000 0.000001
vn -0.000000 1.000000 0.000001
vn 0.000001 1.000000 0.000001
vn -0.000000 -1.000000 0.000001
vn -0.000001 -1.000000 0.000001
vn -0.000001 -1.000000 0.000000
vn -0.000001 -1.000000 -0.000001
vn -0.000000 -1.000000 -0.000001
vn 0.000001 -1.000000 -0.000001
vn 0.000001 -1.000000 -0.000000
vn 0.000001 -1.000000 0.000001
vn 0.788202 -0.615406 0.000000
vn 0.682607 -0.615406 -0.394086
vn 0.682607 0.615406 -0.394086
vn 0.788202 0.615406 0.000000
vn 0.682607 -0.615406 0.394086
vn 0.682607 0.615406 0.394086
vn 0.394086 -0.615406 0.682607
vn 0.394086 0.615406 0.682607
vn 0.000000 -0.615406 0.788202
vn 0.000000 0.615406 0.788202
vn -0.394086 -0.615406 0.682607
vn -0.394086 0.615406 0.682607
vn -0.682607 -0.615406 0.394086
vn -0.682607 0.615406 0.394086
vn -0.788202 -0.615406 0.000000
vn -0.788202 0.615406 0.000000
vn -0.682607 -0.615406 -0.394086
vn -0.682607 0.615406 -0.394086
vn -0.394086 -0.615406 -0.682607
vn -0.394086 0.615406 -0.682607
vn 0.000000 -0.615406 -0.788202
vn 0.000000 0.615406 -0.788202
vn 0.394086 -0.615406 -0.682607
vn 0.394086 0.615406 -0.682607
vn 0.856838 0.145116 -0.494705
vn 0.989410 0.145116 0.000000
vn 0.856838 0.145116 0.494705
vn 0.494705 0.145116 0.856838
vn 0.000000 0.145116 0.989410
vn -0.494705 0.145116 0.856838
vn -0.856838 0.145116 0.494705
vn -0.989410 0.145116 0.000000
vn -0.856838 0.145116 -0.494705
vn -0.494705 0.145116 -0.856838
vn 0.000000 0.145116 -0.989410
vn 0.494705 0.145116 -0.856838
vn 0.719138 0.557146 -0.415174
vn 0.830378 0.557146 0.000000
vn 0.719138 0.557146 0.415174
vn 0.415174 0.557146 0.719138
vn 0.000000 0.557146 0.830378
vn -0.415174 0.557146 0.719138
vn -0.719138 0.557146 0.415174
vn -0.830378 0.557146 0.000000
vn -0.719138 0.557146 -0.415174
vn -0.415174 0.557146 -0.719138
vn 0.000000 0.557146 -0.830378
vn 0.415174 0.557146 -0.719138
vn 0.316630 0.930754 -0.182806
vn 0.365612 0.930754 0.000000
vn 0.316630 0.930754 0.182806
vn 0.182806 0.930754 0.316630
vn 0.000000 0.930754 0.365612
vn -0.182806 0.930754 0.316630
vn -0.316630 0.930754 0.182806
vn -0.365612 0.930754 0.000000
vn -0.316630 0.930754 -0.182806
vn -0.182806 0.930754 -0.316630
vn 0.000000 0.930754 -0.365612
vn 0.182806 0.930754 -0.316630
vn 0.492447 0.870327 0.000000
vn 0.346934 0.871334 -0.346934
vn 0.664083 0.343486 -0.664083
vn 0.939146 0.343486 0.000000
vn 0.346934 0.871334 0.346934
vn 0.664083 0.343486 0.664083
vn 0.000000 0.870327 0.492447
vn 0.000000 0.343486 0.939146
vn -0.346934 0.871334 0.346934
vn -0.664083 0.343486 0.664083
vn -0.492447 0.870327 0.000000
vn -0.939146 0.343486 0.000000
vn -0.346934 0.871334 -0.346934
vn -0.664083 0.343486 -0.664083
vn 0.000000 0.870327 -0.492447
vn 0.000000 0.343486 -0.939146
vn 0.572314 0.587268 -0.572314
vn 0.809351 0.587268 0.000000
vn 0.572314 0.587268 0.572314
vn 0.000000 0.587268 0.809351
vn -0.572314 0.587268 0.572314
vn -0.809351 0.587268 0.000000
vn -0.572314 0.587268 -0.572314
vn 0.000000 0.587268 -0.809351
vn 0.659841 0.359447 -0.659841
vn 0.933134 0.359447 0.000000
vn 0.659841 0.359447 0.659841
vn 0.000000 0.359447 0.933134
vn -0.659841 0.359447 0.659841
vn -0.933134 0.359447 0.000000
vn -0.659841 0.359447 -0.659841
vn 0.000000 0.359447 -0.933134
vn 0.334544 0.880978 -0.334544
vn 0.473128 0.880978 0.000000
vn 0.333262 0.881924 0.333262
vn 0.000000 0.881924 0.471328
vn -0.334544 0.880978 0.334544
vn -0.473128 0.880978 0.000000
vn -0.333262 0.881924 -0.333262
vn 0.000000 0.881924 -0.471328
vn 0.432691 -0.901517 0.000000
vn 0.922025 -0.387066 0.000000
vn 0.651967 -0.387066 -0.651967
vn 0.304697 -0.902371 -0.304697
vn 0.304697 -0.902371 0.304697
vn 0.651967 -0.387066 0.651967
vn 0.000000 -0.901517 0.432691
vn 0.000000 -0.387066 0.922025
vn -0.304697 -0.902371 0.304697
vn -0.651967 -0.387066 0.651967
vn -0.432691 -0.901517 0.000000
vn -0.922025 -0.387066 0.000000
vn -0.304697 -0.902371 -0.304697
vn -0.651967 -0.387066 -0.651967
vn 0.000000 -0.901517 -0.432691
vn 0.000000 -0.387066 -0.922025
vn 0.809351 -0.587268 0.000000
vn 0.572314 -0.587268 -0.572314
vn 0.572314 -0.587268 0.572314
vn 0.000000 -0.587268 0.809351
vn -0.572314 -0.587268 0.572314
vn -0.809351 -0.587268 0.000000
vn -0.572314 -0.587268 -0.572314
vn 0.000000 -0.587268 -0.809351
vn -0.897702 -0.440565 0.000000
vn -0.634754 -0.440565 0.634754
vn -0.634754 -0.440565 -0.634754
vn 0.000000 -0.440565 -0.897702
vn 0.634754 -0.440565 -0.634754
vn 0.897702 -0.440565 0.000000
vn 0.634754 -0.440565 0.634754
vn 0.000000 -0.440565 0.897702
vn -0.408704 -0.912656 0.000000
vn -0.288980 -0.912656 0.288980
vn -0.288980 -0.912656 -0.288980
vn 0.000000 -0.912656 -0.408704
vn 0.288980 -0.912656 -0.288980
vn 0.408704 -0.912656 0.000000
vn 0.288980 -0.912656 0.288980
vn 0.000000 -0.912656 0.408704
usemtl (null)
s off
f 89//1 90//1 97//1 98//1
f 91//1 89//1 98//1 99//1
f 92//1 91//1 99//1 100//1
f 93//1 92//1 100//1 101//1
f 94//1 93//1 101//1 102//1
f 95//1 94//1 102//1 103//1
f 96//1 95//1 103//1 104//1
f 90//1 96//1 104//1 97//1
f 137//2 146//2 145//2 138//2
f 139//2 147//2 146//2 137//2
f 140//2 148//2 147//2 139//2
f 141//2 149//2 148//2 140//2
f 142//2 150//2 149//2 141//2
f 143//2 151//2 150//2 142//2
f 144//2 152//2 151//2 143//2
f 138//2 145//2 152//2 144//2
f 153//1 162//1 161//1 154//1
f 155//1 163//1 162//1 153//1
f 156//1 164//1 163//1 155//1
f 157//1 165//1 164//1 156//1
f 158//1 166//1 165//1 157//1
f 159//1 167//1 166//1 158//1
f 160//1 168//1 167//1 159//1
f 154//1 161//1 168//1 160//1
f 64//3 75//3 76//3 65//3
f 65//3 76//3 77//3 66//3
f 67//4 77//4 78//4 68//4
f 68//4 78//4 79//4 69//4
f 66//5 77//5 67//5
f 63//6 75//6 64//6
f 61//7 74//7 75//7 63//7
f 61//7 62//7 73//7 74//7
f 62//8 72//8 73//8
f 71//9 80//9 73//9 72//9
f 70//9 79//9 80//9 71//9
f 69//10 79//10 70//10
f 5//11 6//11 125//11 124//11
f 6//12 7//12 125//12
f 7//13 8//13 126//13 125//13
f 8//13 9//13 127//13 126//13
f 9//14 10//14 127//14
f 10//15 11//15 128//15 127//15
f 11//15 12//15 121//15 128//15
f 1//16 121//16 12//16
f 1//17 2//17 122//17 121//17
f 2//17 3//17 123//17 122//17
f 3//18 4//18 123//18
f 4//11 5//11 124//11 123//11
f 116//1 119//1 118//1 117//1
f 113//1 114//1 120//1 115//1
f 115//1 120//1 119//1 116//1
s 1
f 2//19 1//20 13//21 14//22
f 3//23 2//19 14//22 15//24
f 4//25 3//23 15//24 16//26
f 5//27 4//25 16//26 17//28
f 6//29 5//27 17//28 18//30
f 7//31 6//29 18//30 19//32
f 8//33 7//31 19//32 20//34
f 9//35 8//33 20//34 21//36
f 10//37 9//35 21//36 22//38
f 11//39 10//37 22//38 23//40
f 12//41 11//39 23//40 24//42
f 13//21 1//20 12//41 24//42
f 14//22 13//21 26//21 25//22
f 15//24 14//22 25//22 27//24
f 16//26 15//24 27//24 28//26
f 17//28 16//26 28//26 29//28
f 18//30 17//28 29//28 30//30
f 19//32 18//30 30//30 31//32
f 20//34 19//32 31//32 32//34
f 21//36 20//34 32//34 33//36
f 22//38 21//36 33//36 34//38
f 23//40 22//38 34//38 35//40
f 24//42 23//40 35//40 36//42
f 24//42 36//42 26//21 13//21
f 25//22 26//21 37//43 38//44
f 27//24 25//22 38//44 39//45
f 28//26 27//24 39//45 40//46
f 29//28 28//26 40//46 41//47
f 30//30 29//28 41//47 42//48
f 31//32 30//30 42//48 43//49
f 32//34 31//32 43//49 44//50
f 33//36 32//34 44//50 45//51
f 34//38 33//36 45//51 46//52
f 35//40 34//38 46//52 47//53
f 36//42 35//40 47//53 48//54
f 36//42 48//54 37//43 26//21
f 38//44 37//43 50//55 49//56
f 39//45 38//44 49//56 51//57
f 40//46 39//45 51//57 52//58
f 41//47 40//46 52//58 53//59
f 42//48 41//47 53//59 54//60
f 43//49 42//48 54//60 55//61
f 44//50 43//49 55//61 56//62
f 45//51 44//50 56//62 57//63
f 46//52 45//51 57//63 58//64
f 47//53 46//52 58//64 59//65
f 48//54 47//53 59//65 60//66
f 48//54 60//66 50//55 37//43
f 49//56 50//55 62//67 61//68
f 51//57 49//56 61//68 63//69
f 52//58 51//57 63//69 64//70
f 53//59 52//58 64//70 65//71
f 54//60 53//59 65//71 66//72
f 55//61 54//60 66//72 67//73
f 56//62 55//61 67//73 68//74
f 57//63 56//62 68//74 69//75
f 58//64 57//63 69//75 70//76
f 59//65 58//64 70//76 71//77
f 60//66 59//65 71//77 72//78
f 60//66 72//78 62//67 50//55
f 74//79 73//80 82//81 81//82
f 75//83 74//79 81//82 83//84
f 76//85 75//83 83//84 84//86
f 77//87 76//85 84//86 85//88
f 78//89 77//87 85//88 86//90
f 79//91 78//89 86//90 87//92
f 80//93 79//91 87//92 88//94
f 73//80 80//93 88//94 82//81
f 81//82 82//81 90//95 89//96
f 83//84 81//82 89//96 91//97
f 84//86 83//84 91//97 92//98
f 85//88 84//86 92//98 93//99
f 86//90 85//88 93//99 94//100
f 87//92 86//90 94//100 95//101
f 88//94 87//92 95//101 96//102
f 82//81 88//94 96//102 90//95
f 98//96 97//95 105//103 106//104
f 99//97 98//96 106//104 107//105
f 100//98 99//97 107//105 108//106
f 101//99 100//98 108//106 109//107
f 102//100 101//99 109//107 110//108
f 103//101 102//100 110//108 111//109
f 104//102 103//101 111//109 112//110
f 97//95 104//102 112//110 105//103
f 106//104 105//103 114//111 113//112
f 107//105 106//104 113//112 115//113
f 108//106 107//105 115//113 116//114
f 109//107 108//106 116//114 117//115
f 110//108 109//107 117//115 118//116
f 111//109 110//108 118//116 119//117
f 112//110 111//109 119//117 120//118
f 105//103 112//110 120//118 114//111
f 122//119 130//120 129//121 121//122
f 123//123 131//124 130//120 122//119
f 124//125 132//126 131//124 123//123
f 125//127 133//128 132//126 124//125
f 126//129 134//130 133//128 125//127
f 127//131 135//132 134//130 126//129
f 128//133 136//134 135//132 127//131
f 121//122 129//121 136//134 128//133
f 130//120 137//135 138//136 129//121
f 131//124 139//137 137//135 130//120
f 132//126 140//138 139//137 131//124
f 133//128 141//139 140//138 132//126
f 134//130 142//140 141//139 133//128
f 135//132 143//141 142//140 134//130
f 136//134 144//142 143//141 135//132
f 129//121 138//136 144//142 136//134
f 146//140 153//100 154//99 145//139
f 147//141 155//101 153//100 146//140
f 148//142 156//102 155//101 147//141
f 149//136 157//95 156//102 148//142
f 150//135 158//96 157//95 149//136
f 151//137 159//97 158//96 150//135
f 152//138 160//98 159//97 151//137
f 145//139 154//99 160//98 152//138
f 162//100 169//143 170//144 161//99
f 163//101 171//145 169//143 162//100
f 164//102 172//146 171//145 163//101
f 165//95 173//147 172//146 164//102
f 166//96 174//148 173//147 165//95
f 167//97 175//149 174//148 166//96
f 168//98 176//150 175//149 167//97
f 161//99 170//144 176//150 168//98
f 169//143 178//151 177//152 170//144
f 171//145 179//153 178//151 169//143
f 172//146 180//154 179//153 171//145
f 173//147 181//155 180//154 172//146
f 174//148 182//156 181//155 173//147
f 175//149 183//157 182//156 174//148
f 176//150 184//158 183//157 175//149
f 170//144 177//152 184//158 176//150
f 178//151 185//2 177//152
f 179//153 185//2 178//151
f 180//154 185//2 179//153
f 181//155 185//2 180//154
f 182//156 185//2 181//155
f 183//157 185//2 182//156
f 184//158 185//2 183//157
f 177//152 185//2 184//158
